# xmcd
# Track frame offsets:
# 150
# 15127
# 35672
# 54682
# 74870
# 92875
# 110735
# 126105
# 153625
# 169425
#
# Disc length: 2557 seconds
# Revision: 0
# Processed by: cddbd v1.4b42PL1 Copyright (c) Steve Scherf et al.
# Submitted via: VisiTrax 2.7.4.106 - For more info visit www.synapsa.com
#
DISCID=9109fb0a
DTITLE=Eomot Ra Sun - Three Days Walkin'
DYEAR=1900
DGENRE=
TTITLE0=Goin' to Chicago
TTITLE1=Walkin' these blues away
TTITLE2=Last night
TTITLE3=Let's jump
TTITLE4=Poor boy
TTITLE5=Sons too young
TTITLE6=Blues with a feeling
TTITLE7=So tired
TTITLE8=Biscuits and gravy
TTITLE9=Try your best
EXTD=
EXTT0=
EXTT1=
EXTT2=
EXTT3=
EXTT4=
EXTT5=
EXTT6=
EXTT7=
EXTT8=
EXTT9=
PLAYORDER=
